G04 start of page 3 for group 1 idx 1 *
G04 Title: UltraNano, bottom *
G04 Creator: pcb 1.99z *
G04 CreationDate: Sun 28 Dec 2014 10:36:55 GMT UTC *
G04 For: matt *
G04 Format: Gerber/RS-274X *
G04 PCB-Dimensions (mil): 1377.95 1062.99 *
G04 PCB-Coordinate-Origin: lower left *
%MOIN*%
%FSLAX25Y25*%
%LNBOTTOM*%
%ADD33C,0.0380*%
%ADD32C,0.0118*%
%ADD31C,0.0236*%
%ADD30C,0.0315*%
%ADD29C,0.0521*%
%ADD28C,0.0157*%
%ADD27C,0.0059*%
%ADD26C,0.0001*%
G54D26*G36*
X85532Y70689D02*X85785Y70750D01*
X86043Y70857D01*
X86281Y71003D01*
X86493Y71184D01*
X86674Y71396D01*
X86771Y71554D01*
X91304D01*
X91339Y71552D01*
X91477Y71563D01*
X91478Y71563D01*
X91613Y71595D01*
X91742Y71649D01*
X91861Y71722D01*
X91967Y71812D01*
X91990Y71839D01*
X98596Y78444D01*
X104948D01*
X106435Y76957D01*
X106458Y76930D01*
X106564Y76840D01*
X106683Y76767D01*
X106812Y76713D01*
X106948Y76681D01*
X106948Y76681D01*
X107087Y76670D01*
X107121Y76673D01*
X109088D01*
X109081Y76667D01*
X108722Y76246D01*
X108433Y75774D01*
X108221Y75263D01*
X108092Y74725D01*
X108048Y74173D01*
X108092Y73622D01*
X108221Y73083D01*
X108433Y72572D01*
X108722Y72100D01*
X109081Y71680D01*
X109502Y71320D01*
X109974Y71031D01*
X110485Y70819D01*
X111023Y70690D01*
X111575Y70647D01*
X112126Y70690D01*
X112665Y70819D01*
X113176Y71031D01*
X113648Y71320D01*
X114068Y71680D01*
X114271Y71917D01*
Y66430D01*
X114068Y66667D01*
X113648Y67026D01*
X113176Y67315D01*
X112665Y67527D01*
X112126Y67656D01*
X111575Y67700D01*
X111023Y67656D01*
X110485Y67527D01*
X109974Y67315D01*
X109796Y67206D01*
X105927Y71075D01*
X105904Y71101D01*
X105798Y71192D01*
X105679Y71265D01*
X105550Y71318D01*
X105415Y71351D01*
X105415Y71351D01*
X105276Y71362D01*
X105241Y71359D01*
X103693D01*
X104068Y71680D01*
X104428Y72100D01*
X104717Y72572D01*
X104929Y73083D01*
X105058Y73622D01*
X105091Y74173D01*
X105058Y74725D01*
X104929Y75263D01*
X104717Y75774D01*
X104428Y76246D01*
X104068Y76667D01*
X103648Y77026D01*
X103176Y77315D01*
X102665Y77527D01*
X102126Y77656D01*
X101575Y77700D01*
X101023Y77656D01*
X100485Y77527D01*
X99974Y77315D01*
X99502Y77026D01*
X99081Y76667D01*
X98722Y76246D01*
X98433Y75774D01*
X98221Y75263D01*
X98172Y75060D01*
X96452D01*
X96417Y75062D01*
X96278Y75052D01*
X96143Y75019D01*
X96014Y74966D01*
X95895Y74893D01*
X95895Y74893D01*
X95789Y74802D01*
X95766Y74776D01*
X86516Y65526D01*
Y67879D01*
X86519Y67913D01*
X86508Y68052D01*
X86508Y68052D01*
X86476Y68188D01*
X86422Y68317D01*
X86349Y68436D01*
X86259Y68542D01*
X86232Y68565D01*
X85532Y69266D01*
Y70689D01*
G37*
G36*
X111569Y60647D02*X111575Y60647D01*
X112126Y60690D01*
X112665Y60819D01*
X113176Y61031D01*
X113648Y61320D01*
X114068Y61680D01*
X114271Y61917D01*
Y58123D01*
X113354Y57206D01*
X113176Y57315D01*
X112665Y57527D01*
X112126Y57656D01*
X111575Y57700D01*
X111569Y57699D01*
Y60647D01*
G37*
G36*
Y98425D02*X116142D01*
Y19685D01*
X111569D01*
Y20548D01*
X111575Y20548D01*
X112142Y20593D01*
X112695Y20725D01*
X113221Y20943D01*
X113706Y21240D01*
X114138Y21610D01*
X114508Y22042D01*
X114805Y22527D01*
X115023Y23053D01*
X115155Y23606D01*
X115189Y24173D01*
X115155Y24740D01*
X115023Y25294D01*
X114805Y25819D01*
X114508Y26304D01*
X114138Y26737D01*
X113706Y27106D01*
X113221Y27403D01*
X112695Y27621D01*
X112142Y27754D01*
X111575Y27799D01*
X111569Y27798D01*
Y30647D01*
X111575Y30647D01*
X112126Y30690D01*
X112665Y30819D01*
X113176Y31031D01*
X113648Y31320D01*
X114068Y31680D01*
X114428Y32100D01*
X114717Y32572D01*
X114929Y33083D01*
X115058Y33622D01*
X115091Y34173D01*
X115058Y34725D01*
X114929Y35263D01*
X114717Y35774D01*
X114428Y36246D01*
X114068Y36667D01*
X113648Y37026D01*
X113176Y37315D01*
X112665Y37527D01*
X112126Y37656D01*
X111575Y37700D01*
X111569Y37699D01*
Y40647D01*
X111575Y40647D01*
X112126Y40690D01*
X112665Y40819D01*
X113176Y41031D01*
X113648Y41320D01*
X114068Y41680D01*
X114428Y42100D01*
X114717Y42572D01*
X114929Y43083D01*
X115058Y43622D01*
X115091Y44173D01*
X115058Y44725D01*
X114929Y45263D01*
X114717Y45774D01*
X114428Y46246D01*
X114068Y46667D01*
X113648Y47026D01*
X113176Y47315D01*
X112665Y47527D01*
X112126Y47656D01*
X111575Y47700D01*
X111569Y47699D01*
Y50647D01*
X111575Y50647D01*
X112126Y50690D01*
X112665Y50819D01*
X113176Y51031D01*
X113648Y51320D01*
X114068Y51680D01*
X114428Y52100D01*
X114717Y52572D01*
X114929Y53083D01*
X115058Y53622D01*
X115091Y54173D01*
X115058Y54725D01*
X114929Y55263D01*
X114717Y55774D01*
X114608Y55953D01*
X115760Y57104D01*
X115786Y57127D01*
X115877Y57233D01*
X115877Y57233D01*
X115950Y57352D01*
X116003Y57481D01*
X116036Y57617D01*
X116047Y57756D01*
X116044Y57791D01*
Y75556D01*
X116047Y75591D01*
X116036Y75729D01*
X116036Y75730D01*
X116003Y75865D01*
X115950Y75994D01*
X115877Y76113D01*
X115786Y76219D01*
X115760Y76242D01*
X113840Y78161D01*
X113818Y78188D01*
X113712Y78278D01*
X113593Y78351D01*
X113464Y78405D01*
X113328Y78437D01*
X113328Y78437D01*
X113189Y78448D01*
X113154Y78446D01*
X111569D01*
Y80647D01*
X111575Y80647D01*
X112126Y80690D01*
X112665Y80819D01*
X113176Y81031D01*
X113648Y81320D01*
X114068Y81680D01*
X114428Y82100D01*
X114717Y82572D01*
X114929Y83083D01*
X115058Y83622D01*
X115091Y84173D01*
X115058Y84725D01*
X114929Y85263D01*
X114717Y85774D01*
X114428Y86246D01*
X114068Y86667D01*
X113648Y87026D01*
X113176Y87315D01*
X112665Y87527D01*
X112126Y87656D01*
X111575Y87700D01*
X111569Y87699D01*
Y90647D01*
X111575Y90647D01*
X112126Y90690D01*
X112665Y90819D01*
X113176Y91031D01*
X113648Y91320D01*
X114068Y91680D01*
X114428Y92100D01*
X114717Y92572D01*
X114929Y93083D01*
X115058Y93622D01*
X115091Y94173D01*
X115058Y94725D01*
X114929Y95263D01*
X114717Y95774D01*
X114428Y96246D01*
X114068Y96667D01*
X113648Y97026D01*
X113176Y97315D01*
X112665Y97527D01*
X112126Y97656D01*
X111575Y97700D01*
X111569Y97699D01*
Y98425D01*
G37*
G36*
Y47699D02*X111023Y47656D01*
X110485Y47527D01*
X109974Y47315D01*
X109502Y47026D01*
X109081Y46667D01*
X108722Y46246D01*
X108433Y45774D01*
X108221Y45263D01*
X108092Y44725D01*
X108048Y44173D01*
X108092Y43622D01*
X108221Y43083D01*
X108433Y42572D01*
X108542Y42394D01*
X106995Y40847D01*
X104636D01*
Y42440D01*
X104717Y42572D01*
X104929Y43083D01*
X105058Y43622D01*
X105091Y44173D01*
X105058Y44725D01*
X104929Y45263D01*
X104717Y45774D01*
X104636Y45907D01*
Y52440D01*
X104717Y52572D01*
X104929Y53083D01*
X105058Y53622D01*
X105091Y54173D01*
X105058Y54725D01*
X104929Y55263D01*
X104717Y55774D01*
X104636Y55907D01*
Y62440D01*
X104717Y62572D01*
X104929Y63083D01*
X105058Y63622D01*
X105091Y64173D01*
X105058Y64725D01*
X104929Y65263D01*
X104717Y65774D01*
X104636Y65907D01*
Y69586D01*
X104908D01*
X108542Y65953D01*
X108433Y65774D01*
X108221Y65263D01*
X108092Y64725D01*
X108048Y64173D01*
X108092Y63622D01*
X108221Y63083D01*
X108433Y62572D01*
X108722Y62100D01*
X109081Y61680D01*
X109502Y61320D01*
X109974Y61031D01*
X110485Y60819D01*
X111023Y60690D01*
X111569Y60647D01*
Y57699D01*
X111023Y57656D01*
X110485Y57527D01*
X109974Y57315D01*
X109502Y57026D01*
X109081Y56667D01*
X108722Y56246D01*
X108433Y55774D01*
X108221Y55263D01*
X108092Y54725D01*
X108048Y54173D01*
X108092Y53622D01*
X108221Y53083D01*
X108433Y52572D01*
X108722Y52100D01*
X109081Y51680D01*
X109502Y51320D01*
X109974Y51031D01*
X110485Y50819D01*
X111023Y50690D01*
X111569Y50647D01*
Y47699D01*
G37*
G36*
Y37699D02*X111023Y37656D01*
X110485Y37527D01*
X109974Y37315D01*
X109796Y37206D01*
X107808Y39194D01*
X107885Y39241D01*
X107991Y39332D01*
X108014Y39358D01*
X109796Y41140D01*
X109974Y41031D01*
X110485Y40819D01*
X111023Y40690D01*
X111569Y40647D01*
Y37699D01*
G37*
G36*
Y19685D02*X104636D01*
Y22440D01*
X104717Y22572D01*
X104929Y23083D01*
X105058Y23622D01*
X105091Y24173D01*
X105058Y24725D01*
X104929Y25263D01*
X104717Y25774D01*
X104636Y25907D01*
Y32440D01*
X104717Y32572D01*
X104929Y33083D01*
X105058Y33622D01*
X105091Y34173D01*
X105058Y34725D01*
X104929Y35263D01*
X104717Y35774D01*
X104636Y35907D01*
Y37893D01*
X106601D01*
X108542Y35953D01*
X108433Y35774D01*
X108221Y35263D01*
X108092Y34725D01*
X108048Y34173D01*
X108092Y33622D01*
X108221Y33083D01*
X108433Y32572D01*
X108722Y32100D01*
X109081Y31680D01*
X109502Y31320D01*
X109974Y31031D01*
X110485Y30819D01*
X111023Y30690D01*
X111569Y30647D01*
Y27798D01*
X111008Y27754D01*
X110455Y27621D01*
X109929Y27403D01*
X109444Y27106D01*
X109011Y26737D01*
X108642Y26304D01*
X108345Y25819D01*
X108127Y25294D01*
X107994Y24740D01*
X107949Y24173D01*
X107994Y23606D01*
X108127Y23053D01*
X108345Y22527D01*
X108642Y22042D01*
X109011Y21610D01*
X109444Y21240D01*
X109929Y20943D01*
X110455Y20725D01*
X111008Y20593D01*
X111569Y20548D01*
Y19685D01*
G37*
G36*
X104636Y98425D02*X111569D01*
Y97699D01*
X111023Y97656D01*
X110485Y97527D01*
X109974Y97315D01*
X109502Y97026D01*
X109081Y96667D01*
X108722Y96246D01*
X108433Y95774D01*
X108221Y95263D01*
X108092Y94725D01*
X108048Y94173D01*
X108092Y93622D01*
X108221Y93083D01*
X108433Y92572D01*
X108722Y92100D01*
X109081Y91680D01*
X109502Y91320D01*
X109974Y91031D01*
X110485Y90819D01*
X111023Y90690D01*
X111569Y90647D01*
Y87699D01*
X111023Y87656D01*
X110485Y87527D01*
X109974Y87315D01*
X109502Y87026D01*
X109081Y86667D01*
X108722Y86246D01*
X108433Y85774D01*
X108221Y85263D01*
X108092Y84725D01*
X108048Y84173D01*
X108092Y83622D01*
X108221Y83083D01*
X108433Y82572D01*
X108722Y82100D01*
X109081Y81680D01*
X109502Y81320D01*
X109974Y81031D01*
X110485Y80819D01*
X111023Y80690D01*
X111569Y80647D01*
Y78446D01*
X107454D01*
X105966Y79933D01*
X105944Y79959D01*
X105838Y80050D01*
X105719Y80123D01*
X105590Y80176D01*
X105454Y80209D01*
X105454Y80209D01*
X105315Y80220D01*
X105280Y80217D01*
X104636D01*
Y82440D01*
X104717Y82572D01*
X104929Y83083D01*
X105058Y83622D01*
X105091Y84173D01*
X105058Y84725D01*
X104929Y85263D01*
X104717Y85774D01*
X104636Y85907D01*
Y92020D01*
X104707Y92026D01*
X104777Y92043D01*
X104843Y92070D01*
X104904Y92107D01*
X104958Y92154D01*
X105005Y92208D01*
X105042Y92269D01*
X105070Y92335D01*
X105086Y92405D01*
X105091Y92476D01*
Y95870D01*
X105086Y95941D01*
X105070Y96011D01*
X105042Y96077D01*
X105005Y96138D01*
X104958Y96193D01*
X104904Y96239D01*
X104843Y96276D01*
X104777Y96304D01*
X104707Y96321D01*
X104636Y96326D01*
Y98425D01*
G37*
G36*
Y80217D02*X101569D01*
Y80647D01*
X101575Y80647D01*
X102126Y80690D01*
X102665Y80819D01*
X103176Y81031D01*
X103648Y81320D01*
X104068Y81680D01*
X104428Y82100D01*
X104636Y82440D01*
Y80217D01*
G37*
G36*
Y65907D02*X104428Y66246D01*
X104068Y66667D01*
X103648Y67026D01*
X103176Y67315D01*
X102665Y67527D01*
X102126Y67656D01*
X101575Y67700D01*
X101569Y67699D01*
Y69586D01*
X104636D01*
Y65907D01*
G37*
G36*
Y55907D02*X104428Y56246D01*
X104068Y56667D01*
X103648Y57026D01*
X103176Y57315D01*
X102665Y57527D01*
X102126Y57656D01*
X101575Y57700D01*
X101569Y57699D01*
Y60647D01*
X101575Y60647D01*
X102126Y60690D01*
X102665Y60819D01*
X103176Y61031D01*
X103648Y61320D01*
X104068Y61680D01*
X104428Y62100D01*
X104636Y62440D01*
Y55907D01*
G37*
G36*
Y45907D02*X104428Y46246D01*
X104068Y46667D01*
X103648Y47026D01*
X103176Y47315D01*
X102665Y47527D01*
X102126Y47656D01*
X101575Y47700D01*
X101569Y47699D01*
Y50647D01*
X101575Y50647D01*
X102126Y50690D01*
X102665Y50819D01*
X103176Y51031D01*
X103648Y51320D01*
X104068Y51680D01*
X104428Y52100D01*
X104636Y52440D01*
Y45907D01*
G37*
G36*
Y40847D02*X102732D01*
X103176Y41031D01*
X103648Y41320D01*
X104068Y41680D01*
X104428Y42100D01*
X104636Y42440D01*
Y40847D01*
G37*
G36*
Y35907D02*X104428Y36246D01*
X104068Y36667D01*
X103648Y37026D01*
X103176Y37315D01*
X102665Y37527D01*
X102126Y37656D01*
X101575Y37700D01*
X101569Y37699D01*
Y37893D01*
X104636D01*
Y35907D01*
G37*
G36*
Y25907D02*X104428Y26246D01*
X104068Y26667D01*
X103648Y27026D01*
X103176Y27315D01*
X102665Y27527D01*
X102126Y27656D01*
X101575Y27700D01*
X101569Y27699D01*
Y30647D01*
X101575Y30647D01*
X102126Y30690D01*
X102665Y30819D01*
X103176Y31031D01*
X103648Y31320D01*
X104068Y31680D01*
X104428Y32100D01*
X104636Y32440D01*
Y25907D01*
G37*
G36*
Y19685D02*X101569D01*
Y20647D01*
X101575Y20647D01*
X102126Y20690D01*
X102665Y20819D01*
X103176Y21031D01*
X103648Y21320D01*
X104068Y21680D01*
X104428Y22100D01*
X104636Y22440D01*
Y19685D01*
G37*
G36*
X101569Y98425D02*X104636D01*
Y96326D01*
X104564Y96321D01*
X104495Y96304D01*
X104429Y96276D01*
X104368Y96239D01*
X104313Y96193D01*
X104267Y96138D01*
X104229Y96077D01*
X104202Y96011D01*
X104185Y95941D01*
X104181Y95870D01*
Y92476D01*
X104185Y92405D01*
X104202Y92335D01*
X104229Y92269D01*
X104267Y92208D01*
X104313Y92154D01*
X104368Y92107D01*
X104429Y92070D01*
X104495Y92043D01*
X104564Y92026D01*
X104636Y92020D01*
Y85907D01*
X104428Y86246D01*
X104068Y86667D01*
X103648Y87026D01*
X103176Y87315D01*
X102665Y87527D01*
X102126Y87656D01*
X101575Y87700D01*
X101569Y87699D01*
Y90657D01*
X103272D01*
X103343Y90662D01*
X103413Y90678D01*
X103479Y90706D01*
X103540Y90743D01*
X103594Y90790D01*
X103641Y90844D01*
X103678Y90905D01*
X103705Y90971D01*
X103722Y91041D01*
X103728Y91112D01*
X103722Y91184D01*
X103705Y91253D01*
X103678Y91319D01*
X103641Y91380D01*
X103594Y91435D01*
X103540Y91481D01*
X103479Y91519D01*
X103413Y91546D01*
X103343Y91563D01*
X103272Y91567D01*
X101569D01*
Y96780D01*
X103272D01*
X103343Y96784D01*
X103413Y96800D01*
X103479Y96828D01*
X103540Y96865D01*
X103594Y96912D01*
X103641Y96966D01*
X103678Y97027D01*
X103705Y97093D01*
X103722Y97163D01*
X103728Y97234D01*
X103722Y97306D01*
X103705Y97375D01*
X103678Y97441D01*
X103641Y97502D01*
X103594Y97557D01*
X103540Y97603D01*
X103479Y97641D01*
X103413Y97668D01*
X103343Y97685D01*
X103272Y97689D01*
X101569D01*
Y98425D01*
G37*
G36*
Y80217D02*X98263D01*
X98228Y80220D01*
X98089Y80209D01*
X97954Y80176D01*
X97825Y80123D01*
X97706Y80050D01*
X97600Y79959D01*
X97577Y79933D01*
X90971Y73327D01*
X86771D01*
X86674Y73486D01*
X86493Y73698D01*
X86281Y73879D01*
X86043Y74025D01*
X85785Y74131D01*
X85532Y74192D01*
Y75813D01*
X93005Y83287D01*
X98172D01*
X98221Y83083D01*
X98433Y82572D01*
X98722Y82100D01*
X99081Y81680D01*
X99502Y81320D01*
X99974Y81031D01*
X100485Y80819D01*
X101023Y80690D01*
X101569Y80647D01*
Y80217D01*
G37*
G36*
Y57699D02*X101023Y57656D01*
X100485Y57527D01*
X99974Y57315D01*
X99502Y57026D01*
X99081Y56667D01*
X98722Y56246D01*
X98433Y55774D01*
X98221Y55263D01*
X98092Y54725D01*
X98048Y54173D01*
X98092Y53622D01*
X98221Y53083D01*
X98433Y52572D01*
X98542Y52394D01*
X97625Y51477D01*
X85532D01*
Y60285D01*
X85562Y60304D01*
X85668Y60395D01*
X85691Y60421D01*
X94855Y69586D01*
X101569D01*
Y67699D01*
X101023Y67656D01*
X100485Y67527D01*
X99974Y67315D01*
X99502Y67026D01*
X99081Y66667D01*
X98722Y66246D01*
X98433Y65774D01*
X98221Y65263D01*
X98092Y64725D01*
X98048Y64173D01*
X98092Y63622D01*
X98221Y63083D01*
X98433Y62572D01*
X98722Y62100D01*
X99081Y61680D01*
X99502Y61320D01*
X99974Y61031D01*
X100485Y60819D01*
X101023Y60690D01*
X101569Y60647D01*
Y57699D01*
G37*
G36*
Y47699D02*X101023Y47656D01*
X100485Y47527D01*
X99974Y47315D01*
X99502Y47026D01*
X99081Y46667D01*
X98722Y46246D01*
X98433Y45774D01*
X98221Y45263D01*
X98092Y44725D01*
X98048Y44173D01*
X98092Y43622D01*
X98221Y43083D01*
X98433Y42572D01*
X98722Y42100D01*
X99081Y41680D01*
X99502Y41320D01*
X99974Y41031D01*
X100418Y40847D01*
X99580D01*
X98683Y41744D01*
X98660Y41771D01*
X98554Y41861D01*
X98435Y41934D01*
X98306Y41987D01*
X98171Y42020D01*
X98170Y42020D01*
X98032Y42031D01*
X97997Y42028D01*
X96430D01*
X95533Y42925D01*
X95511Y42952D01*
X95405Y43042D01*
X95286Y43115D01*
X95157Y43169D01*
X95021Y43201D01*
X95021Y43201D01*
X94882Y43212D01*
X94847Y43209D01*
X85532D01*
Y49704D01*
X97957D01*
X97992Y49701D01*
X98131Y49712D01*
X98131Y49712D01*
X98267Y49745D01*
X98396Y49798D01*
X98515Y49871D01*
X98621Y49962D01*
X98644Y49988D01*
X99796Y51140D01*
X99974Y51031D01*
X100485Y50819D01*
X101023Y50690D01*
X101569Y50647D01*
Y47699D01*
G37*
G36*
Y37699D02*X101023Y37656D01*
X100485Y37527D01*
X99974Y37315D01*
X99796Y37206D01*
X99109Y37893D01*
X101569D01*
Y37699D01*
G37*
G36*
Y19685D02*X85532D01*
Y39074D01*
X93334D01*
X94230Y38177D01*
X94253Y38151D01*
X94359Y38060D01*
X94359Y38060D01*
X94478Y37987D01*
X94607Y37934D01*
X94743Y37901D01*
X94743D01*
X94882Y37890D01*
X94917Y37893D01*
X96601D01*
X98542Y35953D01*
X98433Y35774D01*
X98221Y35263D01*
X98092Y34725D01*
X98048Y34173D01*
X98092Y33622D01*
X98221Y33083D01*
X98433Y32572D01*
X98722Y32100D01*
X99081Y31680D01*
X99502Y31320D01*
X99974Y31031D01*
X100485Y30819D01*
X101023Y30690D01*
X101569Y30647D01*
Y27699D01*
X101023Y27656D01*
X100485Y27527D01*
X99974Y27315D01*
X99502Y27026D01*
X99081Y26667D01*
X98722Y26246D01*
X98433Y25774D01*
X98221Y25263D01*
X98092Y24725D01*
X98048Y24173D01*
X98092Y23622D01*
X98221Y23083D01*
X98433Y22572D01*
X98722Y22100D01*
X99081Y21680D01*
X99502Y21320D01*
X99974Y21031D01*
X100485Y20819D01*
X101023Y20690D01*
X101569Y20647D01*
Y19685D01*
G37*
G36*
X98514Y98425D02*X101569D01*
Y97689D01*
X99878D01*
X99807Y97685D01*
X99737Y97668D01*
X99671Y97641D01*
X99610Y97603D01*
X99555Y97557D01*
X99509Y97502D01*
X99472Y97441D01*
X99444Y97375D01*
X99427Y97306D01*
X99422Y97234D01*
X99427Y97163D01*
X99444Y97093D01*
X99472Y97027D01*
X99509Y96966D01*
X99555Y96912D01*
X99610Y96865D01*
X99671Y96828D01*
X99737Y96800D01*
X99807Y96784D01*
X99878Y96780D01*
X101569D01*
Y91567D01*
X99878D01*
X99807Y91563D01*
X99737Y91546D01*
X99671Y91519D01*
X99610Y91481D01*
X99555Y91435D01*
X99509Y91380D01*
X99472Y91319D01*
X99444Y91253D01*
X99427Y91184D01*
X99422Y91112D01*
X99427Y91041D01*
X99444Y90971D01*
X99472Y90905D01*
X99509Y90844D01*
X99555Y90790D01*
X99610Y90743D01*
X99671Y90706D01*
X99737Y90678D01*
X99807Y90662D01*
X99878Y90657D01*
X101569D01*
Y87699D01*
X101023Y87656D01*
X100485Y87527D01*
X99974Y87315D01*
X99502Y87026D01*
X99081Y86667D01*
X98722Y86246D01*
X98514Y85907D01*
Y92020D01*
X98585Y92026D01*
X98655Y92043D01*
X98721Y92070D01*
X98782Y92107D01*
X98836Y92154D01*
X98883Y92208D01*
X98920Y92269D01*
X98948Y92335D01*
X98964Y92405D01*
X98968Y92476D01*
Y95870D01*
X98964Y95941D01*
X98948Y96011D01*
X98920Y96077D01*
X98883Y96138D01*
X98836Y96193D01*
X98782Y96239D01*
X98721Y96276D01*
X98655Y96304D01*
X98585Y96321D01*
X98514Y96326D01*
Y98425D01*
G37*
G36*
X85532D02*X98514D01*
Y96326D01*
X98442Y96321D01*
X98373Y96304D01*
X98307Y96276D01*
X98246Y96239D01*
X98191Y96193D01*
X98145Y96138D01*
X98107Y96077D01*
X98080Y96011D01*
X98063Y95941D01*
X98059Y95870D01*
Y92476D01*
X98063Y92405D01*
X98080Y92335D01*
X98107Y92269D01*
X98145Y92208D01*
X98191Y92154D01*
X98246Y92107D01*
X98307Y92070D01*
X98373Y92043D01*
X98442Y92026D01*
X98514Y92020D01*
Y85907D01*
X98433Y85774D01*
X98221Y85263D01*
X98172Y85060D01*
X92673D01*
X92638Y85062D01*
X92499Y85052D01*
X92363Y85019D01*
X92234Y84966D01*
X92115Y84893D01*
X92115Y84893D01*
X92009Y84802D01*
X91986Y84776D01*
X85532Y78321D01*
Y98425D01*
G37*
G36*
Y74192D02*X85514Y74197D01*
X85236Y74218D01*
X84958Y74197D01*
X84687Y74131D01*
X84429Y74025D01*
X84191Y73879D01*
X83979Y73698D01*
X83798Y73486D01*
X83652Y73248D01*
X83546Y72990D01*
X83481Y72719D01*
X83459Y72441D01*
X83481Y72163D01*
X83546Y71892D01*
X83652Y71634D01*
X83798Y71396D01*
X83979Y71184D01*
X84191Y71003D01*
X84429Y70857D01*
X84687Y70750D01*
X84958Y70685D01*
X85236Y70663D01*
X85514Y70685D01*
X85532Y70689D01*
Y69266D01*
X82579Y72218D01*
Y72861D01*
X85532Y75813D01*
Y74192D01*
G37*
G36*
Y51477D02*X84499D01*
X84525Y51499D01*
X84706Y51711D01*
X84851Y51949D01*
X84958Y52207D01*
X85023Y52478D01*
X85040Y52756D01*
X85023Y53034D01*
X84958Y53305D01*
X84851Y53563D01*
X84706Y53801D01*
X84525Y54013D01*
X84312Y54194D01*
X84075Y54340D01*
X83817Y54446D01*
X83546Y54511D01*
X83268Y54533D01*
X82990Y54511D01*
X82718Y54446D01*
X82461Y54340D01*
X82223Y54194D01*
X82011Y54013D01*
X81830Y53801D01*
X81733Y53642D01*
X67358D01*
X67323Y53645D01*
X67184Y53634D01*
X67048Y53602D01*
X66919Y53548D01*
X66800Y53475D01*
X66800Y53475D01*
X66694Y53385D01*
X66671Y53358D01*
X66044Y52731D01*
Y63609D01*
X71627Y69192D01*
X73058D01*
X73511Y68739D01*
X73486Y68761D01*
X73248Y68907D01*
X72990Y69013D01*
X72719Y69078D01*
X72441Y69100D01*
X72163Y69078D01*
X71892Y69013D01*
X71634Y68907D01*
X71396Y68761D01*
X71184Y68580D01*
X71003Y68368D01*
X70857Y68130D01*
X70750Y67872D01*
X70685Y67601D01*
X70663Y67323D01*
X70685Y67045D01*
X70750Y66774D01*
X70857Y66516D01*
X71003Y66278D01*
X71184Y66066D01*
X71396Y65885D01*
X71634Y65739D01*
X71892Y65632D01*
X72163Y65567D01*
X72441Y65545D01*
X72719Y65567D01*
X72990Y65632D01*
X73248Y65739D01*
X73486Y65885D01*
X73698Y66066D01*
X73879Y66278D01*
X73976Y66436D01*
X74042D01*
X75491Y64987D01*
Y64011D01*
X75489Y63976D01*
X75500Y63837D01*
X75500Y63837D01*
X75532Y63702D01*
X75586Y63573D01*
X75659Y63454D01*
X75749Y63348D01*
X75776Y63325D01*
X78679Y60421D01*
X78702Y60395D01*
X78808Y60304D01*
X78927Y60231D01*
X79056Y60178D01*
X79192Y60145D01*
X79192Y60145D01*
X79331Y60134D01*
X79365Y60137D01*
X85005D01*
X85039Y60134D01*
X85178Y60145D01*
X85178Y60145D01*
X85314Y60178D01*
X85443Y60231D01*
X85532Y60285D01*
Y51477D01*
G37*
G36*
X71220Y49704D02*X85532D01*
Y43209D01*
X65920D01*
X66941Y44230D01*
X66967Y44253D01*
X67058Y44359D01*
X67131Y44478D01*
X67184Y44607D01*
X67217Y44743D01*
X67228Y44882D01*
X67225Y44917D01*
Y51404D01*
X67690Y51869D01*
X68454D01*
X68428Y51847D01*
X68247Y51635D01*
X68101Y51398D01*
X67995Y51140D01*
X67929Y50869D01*
X67908Y50591D01*
X67929Y50312D01*
X67995Y50041D01*
X68101Y49784D01*
X68247Y49546D01*
X68428Y49334D01*
X68640Y49153D01*
X68878Y49007D01*
X69136Y48900D01*
X69407Y48835D01*
X69685Y48813D01*
X69963Y48835D01*
X70234Y48900D01*
X70492Y49007D01*
X70730Y49153D01*
X70942Y49334D01*
X71123Y49546D01*
X71220Y49704D01*
G37*
G36*
X49213Y98425D02*X85532D01*
Y78321D01*
X82280Y75069D01*
X82267Y75278D01*
X82202Y75549D01*
X82096Y75807D01*
X81950Y76045D01*
X81769Y76257D01*
X81557Y76438D01*
X81319Y76584D01*
X81061Y76690D01*
X80790Y76756D01*
X80512Y76777D01*
X80234Y76756D01*
X79963Y76690D01*
X79705Y76584D01*
X79467Y76438D01*
X79255Y76257D01*
X79074Y76045D01*
X78928Y75807D01*
X78821Y75549D01*
X78756Y75278D01*
X78734Y75000D01*
X78756Y74722D01*
X78821Y74451D01*
X78928Y74193D01*
X79074Y73955D01*
X79255Y73743D01*
X79467Y73562D01*
X79625Y73465D01*
Y71295D01*
X79623Y71260D01*
X79634Y71121D01*
X79634Y71121D01*
X79666Y70985D01*
X79719Y70856D01*
X79792Y70737D01*
X79883Y70631D01*
X79910Y70608D01*
X82014Y68504D01*
X81809Y68488D01*
X81628Y68445D01*
X77855Y72218D01*
Y75162D01*
X77858Y75197D01*
X77847Y75336D01*
X77847Y75336D01*
X77814Y75472D01*
X77761Y75601D01*
X77688Y75720D01*
X77597Y75826D01*
X77571Y75848D01*
X76242Y77177D01*
X76219Y77204D01*
X76113Y77294D01*
X75994Y77367D01*
X75865Y77421D01*
X75730Y77453D01*
X75729Y77453D01*
X75591Y77464D01*
X75556Y77461D01*
X73657D01*
X73622Y77464D01*
X73483Y77453D01*
X73347Y77421D01*
X73218Y77367D01*
X73099Y77294D01*
X72993Y77204D01*
X72971Y77177D01*
X71483Y75690D01*
X63027D01*
X62992Y75692D01*
X62853Y75681D01*
X62717Y75649D01*
X62588Y75595D01*
X62469Y75523D01*
X62363Y75432D01*
X62341Y75405D01*
X57469Y70533D01*
X57442Y70511D01*
X57351Y70405D01*
X57279Y70286D01*
X57225Y70157D01*
X57193Y70021D01*
X57193Y70020D01*
X57182Y69882D01*
X57184Y69847D01*
Y51942D01*
X55303Y50061D01*
X55277Y50038D01*
X55186Y49932D01*
X55113Y49813D01*
X55060Y49684D01*
X55027Y49549D01*
X55027Y49548D01*
X55016Y49409D01*
X55019Y49375D01*
Y35271D01*
X55016Y35236D01*
X55027Y35097D01*
X55027Y35097D01*
X55060Y34961D01*
X55113Y34833D01*
X55186Y34714D01*
X55277Y34607D01*
X55303Y34585D01*
X57933Y31955D01*
X57890Y31774D01*
X57868Y31496D01*
X57890Y31218D01*
X57955Y30947D01*
X58062Y30689D01*
X58208Y30451D01*
X58389Y30239D01*
X58601Y30058D01*
X58839Y29912D01*
X59096Y29806D01*
X59368Y29740D01*
X59646Y29719D01*
X59924Y29740D01*
X60195Y29806D01*
X60453Y29912D01*
X60690Y30058D01*
X60903Y30239D01*
X61084Y30451D01*
X61229Y30689D01*
X61336Y30947D01*
X61401Y31218D01*
X61418Y31496D01*
X61401Y31774D01*
X61336Y32045D01*
X61229Y32303D01*
X61084Y32541D01*
X60903Y32753D01*
X60690Y32934D01*
X60453Y33080D01*
X60195Y33187D01*
X59924Y33252D01*
X59646Y33274D01*
X59368Y33252D01*
X59187Y33208D01*
X56792Y35603D01*
Y49042D01*
X58673Y50923D01*
X58700Y50946D01*
X58790Y51052D01*
X58863Y51171D01*
X58917Y51300D01*
X58949Y51436D01*
X58960Y51575D01*
X58957Y51610D01*
Y69515D01*
X59547Y70104D01*
Y50761D01*
X57665Y48880D01*
X57639Y48857D01*
X57548Y48751D01*
X57475Y48632D01*
X57422Y48503D01*
X57389Y48367D01*
X57389Y48367D01*
X57378Y48228D01*
X57381Y48194D01*
Y43145D01*
X57378Y43110D01*
X57389Y42971D01*
Y42971D01*
X57422Y42835D01*
X57475Y42707D01*
X57548Y42588D01*
X57548Y42588D01*
X57639Y42481D01*
X57665Y42459D01*
X60766Y39358D01*
X60789Y39332D01*
X60895Y39241D01*
X61014Y39168D01*
X61143Y39115D01*
X61278Y39082D01*
X61278Y39082D01*
X61417Y39071D01*
X61452Y39074D01*
X85532D01*
Y19685D01*
X49213D01*
Y37402D01*
X45272D01*
Y43104D01*
X45275Y43104D01*
X45615Y43130D01*
X45947Y43210D01*
X46261Y43340D01*
X46552Y43518D01*
X46811Y43740D01*
X47033Y43999D01*
X47211Y44290D01*
X47341Y44605D01*
X47421Y44936D01*
X47441Y45276D01*
X47421Y45616D01*
X47341Y45947D01*
X47211Y46262D01*
X47033Y46553D01*
X46811Y46812D01*
X46654Y46947D01*
Y76085D01*
X46812Y76220D01*
X47033Y76479D01*
X47211Y76770D01*
X47342Y77085D01*
X47421Y77416D01*
X47441Y77756D01*
X47421Y78096D01*
X47342Y78427D01*
X47211Y78742D01*
X47033Y79033D01*
X46812Y79292D01*
X46553Y79513D01*
X46262Y79692D01*
X45947Y79822D01*
X45615Y79902D01*
X45276Y79928D01*
X45272Y79928D01*
Y80709D01*
X49213D01*
Y98425D01*
G37*
G36*
X45272Y37402D02*X41339D01*
Y80709D01*
X45272D01*
Y79928D01*
X44936Y79902D01*
X44604Y79822D01*
X44289Y79692D01*
X43999Y79513D01*
X43739Y79292D01*
X43518Y79033D01*
X43340Y78742D01*
X43209Y78427D01*
X43130Y78096D01*
X43103Y77756D01*
X43130Y77416D01*
X43209Y77085D01*
X43340Y76770D01*
X43518Y76479D01*
X43739Y76220D01*
X43897Y76085D01*
Y46947D01*
X43739Y46812D01*
X43518Y46553D01*
X43340Y46262D01*
X43209Y45947D01*
X43129Y45616D01*
X43103Y45276D01*
X43129Y44936D01*
X43209Y44605D01*
X43340Y44290D01*
X43518Y43999D01*
X43739Y43740D01*
X43998Y43518D01*
X44289Y43340D01*
X44604Y43210D01*
X44935Y43130D01*
X45272Y43104D01*
Y37402D01*
G37*
G54D27*X69685Y50591D02*X97992D01*
X83268Y52756D02*X67323D01*
X94291Y41142D02*X62008D01*
X62598Y42323D02*X94882D01*
X93701Y39961D02*X61417D01*
X97441D02*X95472D01*
X96063Y41142D02*X94882Y42323D01*
X78740Y65157D02*X80512Y63386D01*
X83858D01*
X79921Y62205D02*X84449D01*
X83858Y63386D02*X85630Y65157D01*
X84449Y67323D02*Y65748D01*
X85630Y65157D02*Y67913D01*
X80512Y75000D02*Y71260D01*
X84449Y67323D01*
X85630Y67913D02*X81693Y71850D01*
Y73228D01*
X77559Y65945D02*Y64567D01*
X79921Y62205D01*
X76378Y65354D02*Y63976D01*
X79331Y61024D01*
X85039D01*
X97992Y50591D02*X101575Y54173D01*
X111575Y34173D02*X106969Y38780D01*
X98622D01*
X101575Y34173D02*Y34252D01*
X96969Y38780D02*X101575Y34173D01*
X111575Y44173D02*X107362Y39961D01*
X99213D01*
X95472D02*X94291Y41142D01*
X96969Y38780D02*X94882D01*
X93701Y39961D01*
X98622Y38780D02*X97441Y39961D01*
X99213D02*X98031Y41142D01*
X96063D01*
X111575Y54173D02*X115157Y57756D01*
Y75591D01*
X113189Y77559D01*
X107087D01*
X106673Y69075D02*X105276Y70472D01*
X85236Y72441D02*X91339D01*
X98228Y79331D01*
X105315D01*
X107087Y77559D02*X105315Y79331D01*
X101575Y74173D02*X96417D01*
X111575Y64173D02*X106654Y69094D01*
X105276Y70472D02*X94488D01*
X101575Y84173D02*X92638D01*
X81693Y73228D02*X92638Y84173D01*
X76969Y75197D02*X75591Y76575D01*
X76969Y71850D02*Y75197D01*
X79921Y67126D02*X74606Y72441D01*
X74016Y71260D02*X76969Y68307D01*
X74016Y71260D02*X78740Y66535D01*
X94488Y70472D02*X85039Y61024D01*
X96417Y74173D02*X84449Y62205D01*
X83268Y64567D02*X84449Y65748D01*
X82087Y66732D02*X76969Y71850D01*
X83268Y64567D02*X81102D01*
X79921Y65748D01*
Y67126D01*
X78740Y66535D02*Y65157D01*
G54D28*X45276Y77756D02*Y45277D01*
X45275Y45276D01*
G54D27*X64567Y72638D02*X62598D01*
X61614Y68701D02*X62992Y70079D01*
X63976Y45669D02*X65157Y46850D01*
Y63976D01*
X62795Y49213D02*Y65157D01*
X61614Y49803D02*Y68701D01*
X60433Y50394D02*Y70472D01*
X58071Y51575D02*Y69882D01*
X60630Y47047D02*X62795Y49213D01*
X61811Y46457D02*X63976Y48622D01*
X67323Y52756D02*X66339Y51772D01*
Y44882D01*
X64961Y43504D01*
X61811Y44882D02*Y46457D01*
X63976Y48622D02*Y64567D01*
X62992Y74803D02*X59646Y71457D01*
X58071Y69882D02*X62992Y74803D01*
X62598Y72638D02*X60433Y70472D01*
X75591Y76575D02*X73622D01*
X71850Y74803D01*
X62992D02*X71850D01*
X62795Y65157D02*X70079Y72441D01*
X63976Y64567D02*X70669Y71260D01*
X65157Y63976D02*X71260Y70079D01*
X74606Y72441D02*X70079D01*
X70669Y71260D02*X74016D01*
X71260Y70079D02*X73425D01*
X77559Y65945D01*
X72441Y67323D02*X74409D01*
X76378Y65354D01*
X59646Y31496D02*X55906Y35236D01*
Y49409D01*
X61417Y39961D02*X58268Y43110D01*
X62598Y42323D02*X60630Y44291D01*
X62008Y41142D02*X59449Y43701D01*
Y47638D01*
X61614Y49803D01*
X55906Y49409D02*X58071Y51575D01*
X58268Y43110D02*Y48228D01*
X60433Y50394D01*
X60630Y44291D02*Y47047D01*
X64961Y43504D02*X63189D01*
X61811Y44882D01*
G54D29*X101575Y74173D03*
X111575D03*
X101575Y64173D03*
X111575D03*
G54D26*G36*
X98969Y96780D02*Y91567D01*
X104181D01*
Y96780D01*
X98969D01*
G37*
G54D29*X111575Y94173D03*
X101575Y84173D03*
X111575D03*
X101575Y54173D03*
X111575D03*
X101575Y44173D03*
Y34173D03*
Y24173D03*
X111575Y44173D03*
Y34173D03*
Y24173D03*
G54D30*X45276Y77756D03*
G54D31*X62992Y70079D03*
X64567Y72638D03*
X49213Y68898D03*
X85236Y72441D03*
X66339Y77756D03*
X74803Y81693D03*
X51181Y96457D03*
X82677Y94488D03*
X80512Y75000D03*
G54D30*X45275Y45276D03*
G54D31*X63976Y45669D03*
X69685Y50591D03*
X92126Y44488D03*
X59646Y31496D03*
X82087Y66732D03*
X80709Y57087D03*
X72835D03*
X83268Y52756D03*
X72441Y67323D03*
X61024Y23622D03*
X84646D03*
X88583Y36220D03*
X66535Y36614D03*
X43110Y39173D03*
G54D28*G54D32*G54D28*G54D32*G54D33*M02*
