G04 start of page 6 for group -4063 idx -4063 *
G04 Title: UltraNano, componentmask *
G04 Creator: pcb 1.99z *
G04 CreationDate: Thu 15 Jan 2015 11:46:57 GMT UTC *
G04 For: matt *
G04 Format: Gerber/RS-274X *
G04 PCB-Dimensions (mil): 1377.95 1062.99 *
G04 PCB-Coordinate-Origin: lower left *
%MOIN*%
%FSLAX25Y25*%
%LNTOPMASK*%
%ADD48R,0.0261X0.0261*%
%ADD47R,0.0413X0.0413*%
%ADD46R,0.0295X0.0295*%
%ADD45R,0.0177X0.0177*%
%ADD44R,0.0316X0.0316*%
%ADD43R,0.0476X0.0476*%
%ADD42R,0.0453X0.0453*%
%ADD41R,0.0532X0.0532*%
%ADD40C,0.0001*%
%ADD39C,0.0542*%
G54D39*X101575Y74173D03*
X111575D03*
X101575Y64173D03*
X111575D03*
G54D40*G36*
X98865Y96883D02*Y91464D01*
X104284D01*
Y96883D01*
X98865D01*
G37*
G54D39*X111575Y94173D03*
X101575Y84173D03*
X111575D03*
G54D40*G36*
X88381Y97367D02*Y90980D01*
X94769D01*
Y97367D01*
X88381D01*
G37*
G54D39*X101575Y54173D03*
X111575D03*
X101575Y44173D03*
Y34173D03*
Y24173D03*
X111575Y44173D03*
Y34173D03*
Y24173D03*
G54D41*X53544Y39763D02*Y38977D01*
G54D42*X53346Y31693D02*Y31299D01*
Y25394D02*Y25000D01*
G54D41*X60630Y39763D02*Y38977D01*
G54D43*X12205Y45276D02*X37402D01*
X16142Y55118D02*X37402D01*
X16142Y62992D02*X37402D01*
X12205Y72835D02*X37402D01*
G54D44*X78937Y41240D02*Y40256D01*
X84055Y41240D02*Y40256D01*
X69685Y41240D02*Y40256D01*
X74803Y41240D02*Y40256D01*
G54D42*X76969Y31693D02*Y31299D01*
X69488Y31693D02*Y31299D01*
X76969Y25394D02*Y25000D01*
X69488Y25394D02*Y25000D01*
X93110Y31693D02*Y31299D01*
Y25394D02*Y25000D01*
G54D45*X86024Y51378D02*X87992D01*
X77362Y47835D02*Y45866D01*
X79921Y47835D02*Y45866D01*
X82480Y47835D02*Y45866D01*
X86024Y53937D02*X87992D01*
X86024Y56496D02*X87992D01*
X86024Y59055D02*X87992D01*
X86024Y61614D02*X87992D01*
X86024Y64173D02*X87992D01*
X86024Y66732D02*X87992D01*
X82480Y72244D02*Y70276D01*
G54D44*X92867Y66065D02*X93851D01*
X92867Y71183D02*X93851D01*
G54D46*X79331Y95079D02*X81299D01*
G54D44*X78937Y78248D02*Y77264D01*
G54D47*X87521Y77900D02*Y77507D01*
X93427Y77900D02*Y77507D01*
G54D44*X78937Y83563D02*Y82579D01*
Y88878D02*Y87894D01*
G54D47*X93427Y85381D02*Y84987D01*
X87521Y85381D02*Y84987D01*
G54D44*X50492Y48425D02*X51476D01*
X50492Y53543D02*X51476D01*
X55807Y48425D02*X56791D01*
X55807Y53543D02*X56791D01*
G54D41*X55906Y70078D02*X56692D01*
X55906Y62992D02*X56692D01*
G54D45*X61614Y66732D02*X63583D01*
X61614Y64173D02*X63583D01*
X61614Y61614D02*X63583D01*
X61614Y59055D02*X63583D01*
X61614Y56496D02*X63583D01*
X61614Y53937D02*X63583D01*
X61614Y51378D02*X63583D01*
X79921Y72244D02*Y70276D01*
X77362Y72244D02*Y70276D01*
X74803Y72244D02*Y70276D01*
X72244Y72244D02*Y70276D01*
X69685Y72244D02*Y70276D01*
X67126Y72244D02*Y70276D01*
Y47835D02*Y45866D01*
X69685Y47835D02*Y45866D01*
X72244Y47835D02*Y45866D01*
X74803Y47835D02*Y45866D01*
G54D44*X73819Y78248D02*Y77264D01*
G54D48*X67243Y79171D02*X68843D01*
G54D44*X73819Y83563D02*Y82579D01*
G54D48*X67243Y86971D02*X68843D01*
G54D44*X73819Y88878D02*Y87894D01*
G54D46*X52165Y94882D02*Y92913D01*
G54D44*X58760Y96850D02*X59744D01*
X58760Y91732D02*X59744D01*
G54D46*X52165Y80315D02*Y78346D01*
X64764Y95079D02*X66732D01*
G54D48*X59043Y86971D02*X60643D01*
X59043Y83071D02*X60643D01*
X59043Y79171D02*X60643D01*
M02*
