G04 start of page 8 for group -4079 idx -4079 *
G04 Title: UltraNano, topsilk *
G04 Creator: pcb 1.99z *
G04 CreationDate: Thu 15 Jan 2015 11:46:57 GMT UTC *
G04 For: matt *
G04 Format: Gerber/RS-274X *
G04 PCB-Dimensions (mil): 1377.95 1062.99 *
G04 PCB-Coordinate-Origin: lower left *
%MOIN*%
%FSLAX25Y25*%
%LNTOPSILK*%
%ADD53C,0.0059*%
%ADD52C,0.0059*%
%ADD51C,0.0059*%
G54D51*X86024Y89173D02*X84252D01*
Y87402D01*
G54D52*X74409Y34252D02*X95669D01*
Y22441D01*
X74409D01*
X83465Y31496D02*X86614D01*
Y25197D02*X83465D01*
X74409Y22441D02*Y34252D01*
X83465Y31496D02*G75*G03X80315Y28346I0J-3150D01*G01*
Y28346D02*G75*G03X83465Y25196I3150J0D01*G01*
X86614Y25197D02*G75*G03X89764Y28346I0J3150D01*G01*
G75*G03X86614Y31496I-3150J0D01*G01*
X50787Y34252D02*X72047D01*
Y22441D01*
X50787D02*X72047D01*
X59843Y31496D02*X62992D01*
X59843Y25197D02*X62992D01*
X50787Y34252D02*Y22441D01*
X59843Y31496D02*G75*G03X56693Y28346I0J-3150D01*G01*
Y28346D02*G75*G03X59843Y25196I3150J0D01*G01*
X62992Y25197D02*G75*G03X66142Y28346I0J3150D01*G01*
G75*G03X62992Y31496I-3150J0D01*G01*
X59054Y66928D02*Y66142D01*
X53544Y66928D02*Y66142D01*
X48819Y91535D02*X55512D01*
X48819D02*Y81693D01*
X55512D01*
Y91535D02*Y81693D01*
X48819Y89567D02*X55512D01*
X86614Y50197D02*Y47244D01*
Y70866D02*Y67913D01*
X83661Y70866D02*X86614D01*
X62992D02*X65945D01*
X62992D02*Y67913D01*
Y50197D02*Y47244D01*
X65945D01*
X83661D02*X86614D01*
X89567Y44291D01*
X96575Y99173D02*Y19173D01*
X116575D01*
Y99173D01*
X96575D01*
Y89173D02*X106575D01*
Y99173D01*
X86575D02*Y89173D01*
X96575D01*
Y99173D01*
X86575D01*
Y89173D02*X96575D01*
Y99173D01*
G54D53*X94411Y82704D02*Y80184D01*
X89805Y86365D02*X91143D01*
X86537Y82704D02*Y80184D01*
X89805Y76522D02*X91143D01*
X85238Y87664D02*X89490D01*
X85238D02*Y83019D01*
G54D52*X68110Y98425D02*Y91732D01*
X77953D01*
Y98425D02*Y91732D01*
X68110Y98425D02*X77953D01*
X70079D02*Y91732D01*
X57043Y77171D02*X70943D01*
Y88971D02*Y77171D01*
X57043Y88971D02*X70943D01*
X57043D02*Y77171D01*
X56694Y42125D02*X57480D01*
X56694Y36615D02*X57480D01*
M02*
