G04 start of page 8 for group -4079 idx -4079 *
G04 Title: UltraNano, topsilk *
G04 Creator: pcb 1.99z *
G04 CreationDate: Sun 28 Dec 2014 10:36:55 GMT UTC *
G04 For: matt *
G04 Format: Gerber/RS-274X *
G04 PCB-Dimensions (mil): 1377.95 1062.99 *
G04 PCB-Coordinate-Origin: lower left *
%MOIN*%
%FSLAX25Y25*%
%LNTOPSILK*%
%ADD50C,0.0059*%
%ADD49C,0.0059*%
G54D49*X56694Y42125D02*X57480D01*
X56694Y36615D02*X57480D01*
X74409Y34252D02*X95669D01*
Y22441D01*
X74409D01*
X83465Y31496D02*X86614D01*
Y25197D02*X83465D01*
X74409Y22441D02*Y34252D01*
X83465Y31496D02*G75*G03X80315Y28346I0J-3150D01*G01*
Y28346D02*G75*G03X83465Y25196I3150J0D01*G01*
X86614Y25197D02*G75*G03X89764Y28346I0J3150D01*G01*
G75*G03X86614Y31496I-3150J0D01*G01*
X50787Y34252D02*X72047D01*
Y22441D01*
X50787D02*X72047D01*
X59843Y31496D02*X62992D01*
X59843Y25197D02*X62992D01*
X50787Y34252D02*Y22441D01*
X59843Y31496D02*G75*G03X56693Y28346I0J-3150D01*G01*
Y28346D02*G75*G03X59843Y25196I3150J0D01*G01*
X62992Y25197D02*G75*G03X66142Y28346I0J3150D01*G01*
G75*G03X62992Y31496I-3150J0D01*G01*
X53302Y81895D02*X67202D01*
Y93695D02*Y81895D01*
X53302Y93695D02*X67202D01*
X53302D02*Y81895D01*
X59054Y66928D02*Y66142D01*
X53544Y66928D02*Y66142D01*
X86614Y50197D02*Y47244D01*
Y70866D02*Y67913D01*
X83661Y70866D02*X86614D01*
X62992D02*X65945D01*
X62992D02*Y67913D01*
Y50197D02*Y47244D01*
X65945D01*
X83661D02*X86614D01*
X89567Y44291D01*
G54D50*X93701Y82756D02*Y80236D01*
X89094Y86417D02*X90433D01*
X85827Y82756D02*Y80236D01*
X89094Y76575D02*X90433D01*
X84528Y87717D02*X88780D01*
X84528D02*Y83071D01*
G54D49*X96575Y99173D02*Y19173D01*
X116575D01*
Y99173D01*
X96575D01*
Y89173D02*X106575D01*
Y99173D01*
M02*
