M48
INCH
T38C0.012
T37C0.016
T36C0.038
%
T38
X004311Y003917
X004921Y006890
X005531Y009685
X005965Y003150
X006102Y002362
X006299Y007008
X006398Y004567
X006457Y007264
X006654Y003661
X006969Y005059
X007047Y007618
X007244Y006732
X007283Y005709
X008071Y005709
X008209Y006673
X008307Y008898
X008327Y007500
X008465Y002362
X008760Y007244
X008858Y003622
X009094Y005138
X009154Y006201
X009213Y004449
T37
X004528Y004528
X004528Y007776
X006732Y008366
X008268Y008150
T36
X009157Y009417
X010157Y009417
X010157Y008417
X010157Y007417
X010157Y006417
X010157Y005417
X010157Y004417
X010157Y003417
X010157Y002417
X011157Y009417
X011157Y008417
X011157Y007417
X011157Y006417
X011157Y005417
X011157Y004417
X011157Y003417
X011157Y002417
M30
